<?xml version="1.0" encoding="UTF-8" standalone="no"?><!DOCTYPE svg PUBLIC "-//W3C//DTD SVG 1.1//EN" "http://www.w3.org/Graphics/SVG/1.1/DTD/svg11.dtd"><svg width="100%" height="100%" viewBox="0 0 1750 1748" version="1.1" xmlns="http://www.w3.org/2000/svg" xmlns:xlink="http://www.w3.org/1999/xlink" xml:space="preserve" xmlns:serif="http://www.serif.com/" style="fill-rule:evenodd;clip-rule:evenodd;stroke-linejoin:round;stroke-miterlimit:2;"><g><path d="M1749.718,873.561c0,81.484 -66.154,147.638 -147.638,147.638l-1454.442,0c-81.484,0 -147.638,-66.154 -147.638,-147.638c0,-81.484 66.154,-147.638 147.638,-147.638l1454.442,0c81.484,0 147.638,66.154 147.638,147.638Z"/><path d="M977.986,43.213c57.618,57.618 57.618,151.174 0,208.791l-725.981,725.981c-57.618,57.618 -151.174,57.618 -208.791,-0c-57.618,-57.618 -57.618,-151.174 -0,-208.791l725.981,-725.981c57.618,-57.618 151.174,-57.618 208.791,0Z"/><path d="M977.986,1703.909c-57.618,57.618 -151.174,57.618 -208.791,0l-725.981,-725.981c-57.618,-57.618 -57.618,-151.174 0,-208.791c57.618,-57.618 151.174,-57.618 208.791,-0l725.981,725.981c57.618,57.618 57.618,151.174 -0,208.791Z"/></g></svg>