<?xml version="1.0" encoding="UTF-8" standalone="no"?><!DOCTYPE svg PUBLIC "-//W3C//DTD SVG 1.1//EN" "http://www.w3.org/Graphics/SVG/1.1/DTD/svg11.dtd"><svg width="100%" height="100%" viewBox="0 0 1332 2136" version="1.1" xmlns="http://www.w3.org/2000/svg" xmlns:xlink="http://www.w3.org/1999/xlink" xml:space="preserve" xmlns:serif="http://www.serif.com/" style="fill-rule:evenodd;clip-rule:evenodd;stroke-linejoin:round;stroke-miterlimit:2;"><path d="M267.932,933.051l0,423.419l-100.142,0l0,-577.782l100.142,0l0,100.572l101.767,-0c29.688,0 53.791,24.103 53.791,53.791l0,423.419l-100.142,0l0,-423.419l-55.416,0Z"/><path d="M788.832,933.051l0,423.419l-100.142,0l0,-423.419l-38.236,0l0,423.419l-100.142,0l0,-477.21l184.729,0c29.688,0 53.791,24.103 53.791,53.791Z"/><path d="M0,577.782l0,-523.991l0.517,0c0,-29.688 24.103,-53.791 53.791,-53.791l100.142,0l0,53.791l-45.834,0l0,46.781l45.834,0l0,53.791l-45.834,0l0,423.419l-108.616,0Z"/><rect x="167.79" y="100.572" width="100.142" height="477.21"/><path d="M381.414,154.363l-0,423.419l-100.142,0l0,-477.21l201.909,-0c29.688,0 53.791,24.103 53.791,53.791l0,212.243l-100.142,0l0,-212.243l-55.416,0Z"/><path d="M550.312,523.991l0,-92.244l100.142,0l0,92.244l55.416,0l0,-157.385l-101.767,0c-29.688,0 -53.791,-24.103 -53.791,-53.791l0,-158.452c0,-29.688 24.103,-53.791 53.791,-53.791l148.118,-0c29.688,0 53.791,24.103 53.791,53.791l0,110.537l-100.142,0l0,-110.537l-55.416,0l0,158.452l101.767,-0c29.688,0 53.791,24.103 53.791,53.791l0,157.385c0,29.688 -24.103,53.791 -53.791,53.791l-148.118,0c-29.688,0 -53.791,-24.103 -53.791,-53.791Z"/><path d="M819.352,100.572l100.142,-100.572l0,100.572l54.308,0l0,53.791l-54.308,0l0,369.629l54.308,0l0,53.791l-100.659,0c-29.688,0 -53.791,-24.103 -53.791,-53.791l0,-423.419Z"/><rect x="167.79" y="0" width="100.142" height="53.791"/><path d="M0,879.26l100.142,-100.572l0,100.572l54.308,0l0,53.791l-54.308,0l0,369.629l54.308,0l0,53.791l-100.659,0c-29.688,0 -53.791,-24.103 -53.791,-53.791l0,-423.419Z"/><rect x="436.83" y="879.26" width="100.142" height="477.21"/><path d="M802.172,933.051c0,-29.688 24.103,-53.791 53.791,-53.791l206.226,0l-0,544.295c0,29.688 -24.103,53.791 -53.791,53.791l-206.226,0l0,-53.791l159.875,0l0,-67.085l-106.085,0c-29.688,0 -53.791,-24.103 -53.791,-53.791l0,-369.629Zm159.875,0l-59.733,-0l0,369.629l59.733,0l0,-369.629Z"/><rect x="436.83" y="778.688" width="100.142" height="53.791"/><path d="M1075.529,1302.68l0,-92.244l100.142,0l0,92.244l55.416,0l0,-157.385l-101.767,0c-29.688,0 -53.791,-24.103 -53.791,-53.791l0,-158.452c0,-29.688 24.103,-53.791 53.791,-53.791l148.118,-0c29.688,0 53.791,24.103 53.791,53.791l0,110.537l-100.142,0l0,-110.537l-55.416,0l0,158.452l101.767,-0c29.688,0 53.791,24.103 53.791,53.791l0,157.385c0,29.688 -24.103,53.791 -53.791,53.791l-148.118,0c-29.688,0 -53.791,-24.103 -53.791,-53.791Z"/><path d="M0,2135.159l0,-523.991l0.517,0c0,-29.688 24.103,-53.791 53.791,-53.791l100.142,0l0,53.791l-45.834,0l0,46.781l45.834,0l0,53.791l-45.834,0l0,423.419l-108.616,0Z"/><rect x="167.79" y="1657.948" width="100.142" height="477.21"/><path d="M381.414,1711.739l-0,423.419l-100.142,0l0,-477.21l201.909,0c29.688,0 53.791,24.103 53.791,53.791l0,212.243l-100.142,0l0,-212.243l-55.416,0Z"/><path d="M550.312,2081.368l0,-92.244l100.142,0l0,92.244l55.416,0l0,-157.385l-101.767,0c-29.688,0 -53.791,-24.103 -53.791,-53.791l0,-158.452c0,-29.688 24.103,-53.791 53.791,-53.791l148.118,-0c29.688,0 53.791,24.103 53.791,53.791l0,110.537l-100.142,0l0,-110.537l-55.416,0l0,158.452l101.767,0c29.688,0 53.791,24.103 53.791,53.791l0,157.385c0,29.688 -24.103,53.791 -53.791,53.791l-148.118,0c-29.688,0 -53.791,-24.103 -53.791,-53.791Z"/><path d="M819.352,1657.948l100.142,-100.572l0,100.572l54.308,0l0,53.791l-54.308,0l0,369.629l54.308,0l0,53.791l-100.659,0c-29.688,0 -53.791,-24.103 -53.791,-53.791l0,-423.419Z"/><rect x="167.79" y="1557.376" width="100.142" height="53.791"/></svg>