<?xml version="1.0" encoding="UTF-8" standalone="no"?><!DOCTYPE svg PUBLIC "-//W3C//DTD SVG 1.1//EN" "http://www.w3.org/Graphics/SVG/1.1/DTD/svg11.dtd"><svg width="100%" height="100%" viewBox="0 0 1714 1714" version="1.1" xmlns="http://www.w3.org/2000/svg" xmlns:xlink="http://www.w3.org/1999/xlink" xml:space="preserve" xmlns:serif="http://www.serif.com/" style="fill-rule:evenodd;clip-rule:evenodd;stroke-linejoin:round;stroke-miterlimit:2;"><g><path d="M856.899,99.5c418.02,0 757.399,339.379 757.399,757.399c0,418.02 -339.379,757.399 -757.399,757.399c-418.02,0 -757.399,-339.379 -757.399,-757.399c0,-418.02 339.379,-757.399 757.399,-757.399Zm-0,227.22c-292.614,0 -530.179,237.565 -530.179,530.179c0,292.614 237.565,530.179 530.179,530.179c292.614,0 530.179,-237.565 530.179,-530.179c0,-292.614 -237.565,-530.179 -530.179,-530.179Z"/><path d="M1553.13,0l160.669,160.669l-1553.13,1553.13l-160.669,-160.669l1553.13,-1553.13Z"/></g></svg>